<?xml version="1.0" encoding="UTF-8"?>
<svg xmlns="http://www.w3.org/2000/svg" width="1000" height="520" viewBox="0 0 1000 520"><rect x="1" y="1" width="998" height="518" rx="22" fill="#0b0f1a" stroke="#14B8A6" stroke-opacity=".35"/><text x="205" y="56" font-family="'Vazirmatn','Segoe UI','Helvetica Neue',Arial,sans-serif" font-size="12" font-weight="700" fill="#9CA3AF" text-anchor="middle" letter-spacing="5">RATE PROVIDERS</text><text x="585" y="56" font-family="'Vazirmatn','Segoe UI','Helvetica Neue',Arial,sans-serif" font-size="12" font-weight="700" fill="#9CA3AF" text-anchor="middle" letter-spacing="5">ENGINE</text><text x="875" y="56" font-family="'Vazirmatn','Segoe UI','Helvetica Neue',Arial,sans-serif" font-size="12" font-weight="700" fill="#9CA3AF" text-anchor="middle" letter-spacing="5">OUTPUT</text><path d="M380 110 C430 110 430 285 480 285" fill="none" stroke="#14B8A6" stroke-opacity=".3"/><path d="M380 110 C430 110 430 285 480 285" fill="none" stroke="#22D3EE" stroke-opacity=".85" stroke-dasharray="3 12"><animate attributeName="stroke-dashoffset" from="0" to="-30" dur="2s" repeatCount="indefinite"/></path><path d="M380 195 C430 195 430 285 480 285" fill="none" stroke="#14B8A6" stroke-opacity=".3"/><path d="M380 195 C430 195 430 285 480 285" fill="none" stroke="#22D3EE" stroke-opacity=".85" stroke-dasharray="3 12"><animate attributeName="stroke-dashoffset" from="0" to="-30" dur="3s" repeatCount="indefinite"/></path><path d="M380 280 C430 280 430 285 480 285" fill="none" stroke="#6b7280" stroke-opacity=".3"/><path d="M380 280 C430 280 430 285 480 285" fill="none" stroke="#9CA3AF" stroke-opacity=".85" stroke-dasharray="3 12"><animate attributeName="stroke-dashoffset" from="0" to="-30" dur="4s" repeatCount="indefinite"/></path><path d="M380 365 C430 365 430 285 480 285" fill="none" stroke="#6b7280" stroke-opacity=".3"/><path d="M380 365 C430 365 430 285 480 285" fill="none" stroke="#9CA3AF" stroke-opacity=".85" stroke-dasharray="3 12"><animate attributeName="stroke-dashoffset" from="0" to="-30" dur="2s" repeatCount="indefinite"/></path><path d="M380 450 C430 450 430 285 480 285" fill="none" stroke="#6b7280" stroke-opacity=".3"/><path d="M380 450 C430 450 430 285 480 285" fill="none" stroke="#9CA3AF" stroke-opacity=".85" stroke-dasharray="3 12"><animate attributeName="stroke-dashoffset" from="0" to="-30" dur="3s" repeatCount="indefinite"/></path><path d="M690 285 C730 285 730 140 770 140" fill="none" stroke="#8B5CF6" stroke-opacity=".35"/><path d="M690 285 C730 285 730 140 770 140" fill="none" stroke="#c4b5fd" stroke-opacity=".9" stroke-dasharray="3 12"><animate attributeName="stroke-dashoffset" from="0" to="-30" dur="2s" repeatCount="indefinite"/></path><path d="M690 285 C730 285 730 285 770 285" fill="none" stroke="#8B5CF6" stroke-opacity=".35"/><path d="M690 285 C730 285 730 285 770 285" fill="none" stroke="#c4b5fd" stroke-opacity=".9" stroke-dasharray="3 12"><animate attributeName="stroke-dashoffset" from="0" to="-30" dur="3s" repeatCount="indefinite"/></path><path d="M690 285 C730 285 730 430 770 430" fill="none" stroke="#8B5CF6" stroke-opacity=".35"/><path d="M690 285 C730 285 730 430 770 430" fill="none" stroke="#c4b5fd" stroke-opacity=".9" stroke-dasharray="3 12"><animate attributeName="stroke-dashoffset" from="0" to="-30" dur="4s" repeatCount="indefinite"/></path><rect x="30" y="80" width="350" height="60" rx="14" fill="#0d1117"/><rect x="30" y="80" width="350" height="60" rx="14" fill="#14B8A6" fill-opacity=".12" stroke="#14B8A6" stroke-opacity="1"/><text x="50" y="106" font-family="'Vazirmatn','Segoe UI','Helvetica Neue',Arial,sans-serif" font-size="16" font-weight="700" fill="#f1f5f9" text-anchor="start" >arzdigital.com</text><text x="50" y="127" font-family="'Vazirmatn','Segoe UI','Helvetica Neue',Arial,sans-serif" font-size="12.5" font-weight="400" fill="#9CA3AF" text-anchor="start" >PRIMARY LIVE · 16 currencies, one request</text><rect x="30" y="165" width="350" height="60" rx="14" fill="#0d1117"/><rect x="30" y="165" width="350" height="60" rx="14" fill="#14B8A6" fill-opacity=".12" stroke="#14B8A6" stroke-opacity="1"/><text x="50" y="191" font-family="'Vazirmatn','Segoe UI','Helvetica Neue',Arial,sans-serif" font-size="16" font-weight="700" fill="#f1f5f9" text-anchor="start" >tgju.org</text><text x="50" y="212" font-family="'Vazirmatn','Segoe UI','Helvetica Neue',Arial,sans-serif" font-size="12.5" font-weight="400" fill="#9CA3AF" text-anchor="start" >LIVE · 12 currencies, change % + 7-day history</text><rect x="30" y="250" width="350" height="60" rx="14" fill="#0d1117"/><rect x="30" y="250" width="350" height="60" rx="14" fill="#6b7280" fill-opacity=".12" stroke="#6b7280" stroke-opacity="0.6"/><text x="50" y="276" font-family="'Vazirmatn','Segoe UI','Helvetica Neue',Arial,sans-serif" font-size="16" font-weight="700" fill="#f1f5f9" text-anchor="start" >rate-json (GitHub)</text><text x="50" y="297" font-family="'Vazirmatn','Segoe UI','Helvetica Neue',Arial,sans-serif" font-size="12.5" font-weight="400" fill="#9CA3AF" text-anchor="start" >Daily free-market snapshot, fallback</text><rect x="30" y="335" width="350" height="60" rx="14" fill="#0d1117"/><rect x="30" y="335" width="350" height="60" rx="14" fill="#6b7280" fill-opacity=".12" stroke="#6b7280" stroke-opacity="0.6"/><text x="50" y="361" font-family="'Vazirmatn','Segoe UI','Helvetica Neue',Arial,sans-serif" font-size="16" font-weight="700" fill="#f1f5f9" text-anchor="start" >open.er-api.com</text><text x="50" y="382" font-family="'Vazirmatn','Segoe UI','Helvetica Neue',Arial,sans-serif" font-size="12.5" font-weight="400" fill="#9CA3AF" text-anchor="start" >Cross-rate chain for other currencies</text><rect x="30" y="420" width="350" height="60" rx="14" fill="#0d1117"/><rect x="30" y="420" width="350" height="60" rx="14" fill="#6b7280" fill-opacity=".12" stroke="#6b7280" stroke-opacity="0.6"/><text x="50" y="446" font-family="'Vazirmatn','Segoe UI','Helvetica Neue',Arial,sans-serif" font-size="16" font-weight="700" fill="#f1f5f9" text-anchor="start" >Manual rates</text><text x="50" y="467" font-family="'Vazirmatn','Segoe UI','Helvetica Neue',Arial,sans-serif" font-size="12.5" font-weight="400" fill="#9CA3AF" text-anchor="start" >Your own values, filler or full override</text><rect x="770" y="110" width="210" height="60" rx="14" fill="#0d1117"/><rect x="770" y="110" width="210" height="60" rx="14" fill="#8B5CF6" fill-opacity=".14" stroke="#8B5CF6"><animate attributeName="stroke-opacity" values=".4;1;.4" dur="3s" begin="-0s" repeatCount="indefinite"/></rect><text x="790" y="136" font-family="'Vazirmatn','Segoe UI','Helvetica Neue',Arial,sans-serif" font-size="16" font-weight="700" fill="#f1f5f9" text-anchor="start" >Cache</text><text x="790" y="157" font-family="'Vazirmatn','Segoe UI','Helvetica Neue',Arial,sans-serif" font-size="11.5" font-weight="400" fill="#9CA3AF" text-anchor="start" >chrome.storage.local</text><rect x="770" y="255" width="210" height="60" rx="14" fill="#0d1117"/><rect x="770" y="255" width="210" height="60" rx="14" fill="#8B5CF6" fill-opacity=".14" stroke="#8B5CF6"><animate attributeName="stroke-opacity" values=".4;1;.4" dur="3s" begin="-1s" repeatCount="indefinite"/></rect><text x="790" y="281" font-family="'Vazirmatn','Segoe UI','Helvetica Neue',Arial,sans-serif" font-size="16" font-weight="700" fill="#f1f5f9" text-anchor="start" >Page badges</text><text x="790" y="302" font-family="'Vazirmatn','Segoe UI','Helvetica Neue',Arial,sans-serif" font-size="11.5" font-weight="400" fill="#9CA3AF" text-anchor="start" >content.js · on change</text><rect x="770" y="400" width="210" height="60" rx="14" fill="#0d1117"/><rect x="770" y="400" width="210" height="60" rx="14" fill="#8B5CF6" fill-opacity=".14" stroke="#8B5CF6"><animate attributeName="stroke-opacity" values=".4;1;.4" dur="3s" begin="-2s" repeatCount="indefinite"/></rect><text x="790" y="426" font-family="'Vazirmatn','Segoe UI','Helvetica Neue',Arial,sans-serif" font-size="16" font-weight="700" fill="#f1f5f9" text-anchor="start" >Popup</text><text x="790" y="447" font-family="'Vazirmatn','Segoe UI','Helvetica Neue',Arial,sans-serif" font-size="11.5" font-weight="400" fill="#9CA3AF" text-anchor="start" >chips, sparklines, DeKo AI</text><rect x="480" y="200" width="210" height="170" rx="18" fill="#0d1117"/><rect x="480" y="200" width="210" height="170" rx="18" fill="#22D3EE" fill-opacity=".1" stroke="#22D3EE" stroke-width="1.5"><animate attributeName="stroke-opacity" values=".5;1;.5" dur="2.6s" repeatCount="indefinite"/></rect><text x="585" y="238" font-family="'Vazirmatn','Segoe UI','Helvetica Neue',Arial,sans-serif" font-size="17" font-weight="700" fill="#f1f5f9" text-anchor="middle" >Service worker</text><text x="585" y="258" font-family="'Courier New',Consolas,monospace" font-size="13" font-weight="600" fill="#22D3EE" text-anchor="middle" >background.js</text><text x="585" y="292" font-family="'Vazirmatn','Segoe UI','Helvetica Neue',Arial,sans-serif" font-size="12.5" font-weight="400" fill="#9CA3AF" text-anchor="middle" >sanity checks</text><text x="585" y="312" font-family="'Vazirmatn','Segoe UI','Helvetica Neue',Arial,sans-serif" font-size="12.5" font-weight="400" fill="#9CA3AF" text-anchor="middle" >rejects >30% jumps</text><text x="585" y="332" font-family="'Vazirmatn','Segoe UI','Helvetica Neue',Arial,sans-serif" font-size="12.5" font-weight="400" fill="#9CA3AF" text-anchor="middle" >refresh every 5 min</text><text x="585" y="352" font-family="'Vazirmatn','Segoe UI','Helvetica Neue',Arial,sans-serif" font-size="12.5" font-weight="400" fill="#9CA3AF" text-anchor="middle" >broadcast to all tabs</text></svg>